<svg width="21" height="22" viewBox="0 0 21 22" fill="none" xmlns="http://www.w3.org/2000/svg">
<g id="Group 1707478012">
<g id="Group 1707478013">
<path id="Vector" d="M19.5341 7.39997V17.7499C19.5341 18.0454 19.4759 18.338 19.3628 18.6109C19.2497 18.8839 19.084 19.1319 18.8751 19.3409C18.6661 19.5498 18.4181 19.7155 18.1451 19.8286C17.8721 19.9417 17.5796 19.9999 17.2841 19.9999H3.78417C3.18743 19.9999 2.61514 19.7628 2.19319 19.3409C1.77123 18.9189 1.53418 18.3466 1.53418 17.7499V4.24999C1.53418 3.65325 1.77123 3.08096 2.19319 2.65901C2.61514 2.23705 3.18743 2 3.78417 2H13.2049" stroke="#5C6B7E" stroke-width="2.39998" stroke-linecap="round" stroke-linejoin="round"/>
<path id="Vector_2" d="M19.3073 2.29533C19.2252 2.20501 19.1255 2.1323 19.0144 2.08159C18.9033 2.03087 18.7831 2.00321 18.661 2.00026C18.5389 1.99732 18.4175 2.01916 18.3041 2.06446C18.1907 2.10976 18.0877 2.17758 18.0012 2.26383L17.3054 2.95626C17.2211 3.04064 17.1737 3.15506 17.1737 3.27435C17.1737 3.39365 17.2211 3.50806 17.3054 3.59244L17.9433 4.22919C17.9851 4.2712 18.0348 4.30453 18.0895 4.32728C18.1443 4.35002 18.203 4.36173 18.2622 4.36173C18.3215 4.36173 18.3802 4.35002 18.4349 4.32728C18.4896 4.30453 18.5393 4.2712 18.5812 4.22919L19.2595 3.55419C19.6027 3.21163 19.6347 2.65364 19.3073 2.29533ZM15.8986 4.3625L5.74443 14.4987C5.68287 14.56 5.63812 14.6361 5.6145 14.7197L5.14481 16.1187C5.13356 16.1566 5.13276 16.1969 5.1425 16.2353C5.15225 16.2737 5.17216 16.3087 5.20016 16.3367C5.22815 16.3647 5.26319 16.3846 5.30156 16.3944C5.33993 16.4041 5.38023 16.4033 5.41818 16.392L6.81599 15.9224C6.8996 15.8987 6.97573 15.854 7.03705 15.7924L17.1732 5.63712C17.267 5.54234 17.3196 5.41439 17.3196 5.28106C17.3196 5.14773 17.267 5.01978 17.1732 4.925L16.6135 4.3625C16.5187 4.26787 16.3901 4.21473 16.2561 4.21473C16.1221 4.21473 15.9935 4.26787 15.8986 4.3625Z" fill="#5C6B7E"/>
</g>
</g>
</svg>
